HIERARCHY
ROOT Hips
{
	OFFSET 54.248402 -16.105314 85.692497
	CHANNELS 6 Xposition Yposition Zposition Xrotation Yrotation Zrotation
	JOINT spine
	{
		OFFSET 0.000000 -0.367607 6.392601
		CHANNELS 3 Xrotation Yrotation Zrotation
		JOINT spine1
		{
			OFFSET 0.000000 -0.000002 9.176109
			CHANNELS 3 Xrotation Yrotation Zrotation
			JOINT spine2
			{
				OFFSET 0.000000 0.000000 8.792381
				CHANNELS 3 Xrotation Yrotation Zrotation
				JOINT Neck
				{
					OFFSET 0.000000 -1.076244 22.573700
					CHANNELS 3 Xrotation Yrotation Zrotation
					JOINT Head
					{
						OFFSET 0.000000 -0.000002 6.820114
						CHANNELS 3 Xrotation Yrotation Zrotation
						End Site
						{
							OFFSET 0.000000 5.444267 16.508499
						}
					}
				}
				JOINT RightShoulder
				{
					OFFSET -3.702209 0.515506 9.495087
					CHANNELS 3 Xrotation Yrotation Zrotation
					JOINT RightArm
					{
						OFFSET 0.000000 -0.000003 12.453705
						CHANNELS 3 Xrotation Yrotation Zrotation
						JOINT RightArmRoll
						{
							OFFSET 0.000000 -0.000001 6.286865
							CHANNELS 3 Xrotation Yrotation Zrotation
							JOINT RightForeArm
							{
								OFFSET 0.000000 -0.000003 18.311401
								CHANNELS 3 Xrotation Yrotation Zrotation
								JOINT RightForeArmRoll
								{
									OFFSET 0.000000 -0.000001 7.054825
									CHANNELS 3 Xrotation Yrotation Zrotation
									JOINT RightHand
									{
										OFFSET 0.000000 -0.000002 14.157501
										CHANNELS 3 Xrotation Yrotation Zrotation
										End Site
										{
											OFFSET 0.000000 0.000000 0.100006
										}
									}
								}
							}
						}
					}
				}
				JOINT LeftShoulder
				{
					OFFSET 3.702209 0.515506 9.495087
					CHANNELS 3 Xrotation Yrotation Zrotation
					JOINT LeftArm
					{
						OFFSET 0.000000 -0.000003 12.453705
						CHANNELS 3 Xrotation Yrotation Zrotation
						JOINT LeftArmRoll
						{
							OFFSET 0.000000 -0.000001 6.286865
							CHANNELS 3 Xrotation Yrotation Zrotation
							JOINT LeftForeArm
							{
								OFFSET 0.000000 -0.000003 18.311401
								CHANNELS 3 Xrotation Yrotation Zrotation
								JOINT LeftForeArmRoll
								{
									OFFSET 0.000000 -0.000001 7.054825
									CHANNELS 3 Xrotation Yrotation Zrotation
									JOINT LeftHand
									{
										OFFSET 0.000000 -0.000002 14.157501
										CHANNELS 3 Xrotation Yrotation Zrotation
										End Site
										{
											OFFSET 0.000000 0.000000 0.100006
										}
									}
								}
							}
						}
					}
				}
			}
		}
	}
	JOINT RightUpLeg
	{
		OFFSET -5.666161 0.871610 -1.039032
		CHANNELS 3 Xrotation Yrotation Zrotation
		JOINT RightUpLegRoll
		{
			OFFSET 0.000000 -0.000003 16.600502
			CHANNELS 3 Xrotation Yrotation Zrotation
			JOINT RightLeg
			{
				OFFSET 0.000000 0.000003 -20.557198
				CHANNELS 3 Xrotation Yrotation Zrotation
				JOINT RightLegRoll
				{
					OFFSET 0.000000 -0.000003 20.624397
					CHANNELS 3 Xrotation Yrotation Zrotation
					JOINT RightFoot
					{
						OFFSET 0.000000 -0.000003 17.166397
						CHANNELS 3 Xrotation Yrotation Zrotation
						JOINT RightToeBase
						{
							OFFSET 0.000000 -0.000003 14.350204
							CHANNELS 3 Xrotation Yrotation Zrotation
							End Site
							{
								OFFSET 0.006081 0.801060 6.949707
							}
						}
					}
				}
			}
		}
	}
	JOINT LeftUpLeg
	{
		OFFSET 5.666161 0.871610 -1.039032
		CHANNELS 3 Xrotation Yrotation Zrotation
		JOINT LeftUpLegRoll
		{
			OFFSET 0.000000 -0.000003 16.600601
			CHANNELS 3 Xrotation Yrotation Zrotation
			JOINT LeftLeg
			{
				OFFSET 0.000000 -0.000004 20.557098
				CHANNELS 3 Xrotation Yrotation Zrotation
				JOINT LeftLegRoll
				{
					OFFSET 0.000000 -0.000003 20.815102
					CHANNELS 3 Xrotation Yrotation Zrotation
					JOINT LeftFoot
					{
						OFFSET 0.000000 -0.000003 16.975693
						CHANNELS 3 Xrotation Yrotation Zrotation
						JOINT LeftToeBase
						{
							OFFSET 0.000000 -0.000003 14.350204
							CHANNELS 3 Xrotation Yrotation Zrotation
							End Site
							{
								OFFSET -0.027260 0.801059 6.949707
							}
						}
					}
				}
			}
		}
	}
}
MOTION
Frames: 4
Frame Time: 0.041667
53.898796 -16.124811 85.694603 -2.795844 1.989225 -5.140752 -1.350417 0.191917 -0.054569 1.304890 0.388534 -0.091546 2.949988 0.387318 -0.096170 11.739897 -6.902904 1.658713 9.364540 2.922102 1.941168 -17.536231 -26.550334 -20.413625 -116.739763 -137.276953 -71.810109 -0.000000 0.000010 -0.000008 118.998397 -3.902593 10.243580 -0.000002 0.000004 -3.005548 -5.000212 -7.998743 0.000163 2.891457 56.021184 -3.825352 -36.343723 114.742479 32.221213 0.000001 -0.000001 0.000002 4.316895 10.156011 0.158778 -0.000002 -0.000010 3.000001 -5.000221 7.998804 -0.000157 1.791681 -175.739073 1.400573 -179.999991 0.000005 -1.119996 174.500309 -3.886078 -0.555880 0.000003 -0.000000 0.053603 68.644685 6.892905 2.149760 25.456960 -7.355614 -0.000001 1.975018 173.180020 -0.657298 -0.000005 -0.000004 -1.097870 -8.218439 0.591026 0.623528 0.000002 0.000001 -0.153235 71.503577 -6.553982 -2.883611 25.458068 7.355619 -0.001666 
53.899300 -16.124512 85.694099 -2.798822 1.997729 -5.145935 -1.350026 0.192427 -0.055326 1.305230 0.388723 -0.092309 2.950328 0.387495 -0.096928 11.751918 -6.892191 1.659185 9.358116 2.903880 1.943014 -17.508942 -26.559129 -20.373507 -116.666912 -137.248266 -71.920546 0.000001 0.000011 -0.000006 118.956501 -3.872889 10.149383 -0.000003 0.000004 -3.005555 -5.000212 -7.998743 0.000160 2.874075 56.015484 -3.805567 -36.329769 114.751399 32.223456 -0.000001 0.000000 0.000002 4.321713 10.165923 0.157151 0.000000 -0.000010 3.000001 -5.000221 7.998804 -0.000157 1.795949 -175.754073 1.389060 -179.999991 0.000006 -1.119996 174.500227 -3.878122 -0.556120 0.000003 -0.000001 0.053607 68.645109 6.892895 2.149631 25.456959 -7.355614 0.000000 1.975920 173.169024 -0.665785 -0.000005 -0.000004 -1.097580 -8.227161 0.592395 0.624047 0.000002 0.000001 -0.153245 71.507907 -6.552304 -2.887784 25.458070 7.355620 -0.001666 
53.895992 -16.125212 85.695107 -2.801737 2.006384 -5.151409 -1.349636 0.192941 -0.056052 1.305560 0.388926 -0.093123 2.950658 0.387686 -0.097738 11.763737 -6.881272 1.659851 9.351936 2.885144 1.945136 -17.480787 -26.570358 -20.332242 -116.595782 -137.219265 -72.027439 0.000001 0.000012 -0.000007 118.907487 -3.844339 10.056250 -0.000002 0.000006 -3.005550 -5.000211 -7.998741 0.000159 2.855888 56.009505 -3.784859 -36.317127 114.759513 32.226660 0.000001 0.000001 0.000002 4.326756 10.175229 0.155647 -0.000001 -0.000010 2.999999 -5.000222 7.998803 -0.000156 1.800036 -175.769072 1.377583 -179.999991 0.000005 -1.119996 174.500159 -3.870154 -0.555359 0.000003 -0.000000 0.053610 68.645519 6.892890 2.149607 25.456955 -7.355613 -0.000001 1.976654 173.157030 -0.674471 -0.000005 -0.000005 -1.097270 -8.236404 0.593910 0.624593 0.000002 0.000001 -0.153255 71.512545 -6.550660 -2.891840 25.458067 7.355619 -0.001666 
53.897697 -16.133514 85.695892 -2.804525 2.015158 -5.157181 -1.349248 0.193458 -0.056738 1.305860 0.389154 -0.093995 2.950958 0.387903 -0.098609 11.775146 -6.870153 1.660720 9.346068 2.865900 1.947553 -17.451806 -26.584225 -20.289893 -116.526770 -137.190196 -72.130377 0.000000 0.000010 -0.000007 118.851835 -3.817036 9.966220 -0.000000 0.000003 -3.005550 -5.000212 -7.998746 0.000157 2.836888 56.003337 -3.763192 -36.303412 114.768488 32.228063 0.000001 -0.000000 0.000003 4.332141 10.184035 0.154269 0.000000 -0.000010 3.000001 -5.000224 7.998802 -0.000157 1.803830 -175.784071 1.366202 -179.999991 0.000005 -1.119996 174.500186 -3.861192 -0.555493 0.000003 -0.000001 0.053612 68.645956 6.892917 2.149383 25.456959 -7.355615 -0.000000 1.977140 173.144039 -0.683346 -0.000005 -0.000005 -1.096960 -8.246207 0.595598 0.625168 0.000003 0.000001 -0.153267 71.517722 -6.549009 -2.895868 25.458065 7.355619 -0.001666 
